<svg version="1.1" id="Calque_1" xmlns="http://www.w3.org/2000/svg" xmlns:xlink="http://www.w3.org/1999/xlink" x="0px" y="0px"
	 viewBox="0 0 500 843.5" style="enable-background:new 0 0 500 843.5;" xml:space="preserve">
<path style="fill-rule:evenodd;clip-rule:evenodd;fill:#D2082A;" d="M495.2,693.6V-4.8H4.8v842.9l414.5-51.2
	C419.3,786.9,495.2,775.2,495.2,693.6"/>
<path style="fill:#FFFFFF;" d="M0,843.5V-9.6h500v703.2c0,84.8-79.2,97.9-80,98L0,843.5z M9.6,0v832.6l409.1-50.5
	c2.8-0.4,71.7-12.1,71.7-88.5V0H9.6z"/>
<g id="text">
	<path style="fill-rule:evenodd;clip-rule:evenodd;fill:#FEFEFE;" d="M216.7,680.6l-1.9,35.1c-0.2,3.7-0.5,9.8-7.3,10.6
		c-0.4,0.1-0.7,0.1-1.1,0.1c-1.8,0-3.2-0.5-4.2-1.6c-1.8-2-1.8-5-1.6-8.1l1.9-34.4l-29.3,3.6l-2.1,38.6c-0.4,7.5,1.4,13.6,5.5,18.1
		c4.9,5.4,13.1,8.3,23.1,8.1c1.9,0,3.9-0.2,5.9-0.4c27.1-3.4,37.7-21.2,38.4-35.5l2-37.8L216.7,680.6z"/>
	<path style="fill-rule:evenodd;clip-rule:evenodd;fill:#FEFEFE;" d="M258.6,675.4l-3.6,67.2l29.5-3.6l3.6-67.2L258.6,675.4z"/>
	<path style="fill-rule:evenodd;clip-rule:evenodd;fill:#FEFEFE;" d="M271,663.1c0.8,0,1.7-0.1,2.6-0.2c8.1-1,17-6.1,17.6-17.4
		c0.2-3.7-0.7-6.8-2.7-8.9c-2.2-2.4-5.8-3.7-10.1-3.7c-0.8,0-1.6,0.1-2.5,0.2c-10,1.2-17.1,8.2-17.6,17.2c-0.2,3.9,0.7,7,2.7,9.2
		C263.7,662.5,267.9,663.1,271,663.1"/>
	<path style="fill-rule:evenodd;clip-rule:evenodd;fill:#FEFEFE;" d="M440.7,652.9l-30.1,3.7l-17.8,28.2l-3.4,0.4l3.8-71.2l-19,2.3
		c-0.1,0-5,0.6-7.7,3.8l-0.1,0.1c-3,2.9-3.3,8.2-3.4,8.2l-5.5,101.4l29.5-3.6l1.4-25.9l2.9-0.4l13.4,18.6c0.3,0.4,3.6,4.3,9.8,4.2
		c0.5,0,1.1,0,1.7-0.1l22.4-2.8l-23.1-31.5L440.7,652.9z"/>
	<path style="fill-rule:evenodd;clip-rule:evenodd;fill:#FEFEFE;" d="M115.3,732.1c-1.4,0.6-4.4,1.3-6,1.5c-0.7,0.1-1.3,0.1-2,0.1
		c-4.3,0.1-8.2-1.6-11-4.7c-3.3-3.7-5.1-9.2-4.7-15.1c0.7-12.2,8.7-21.4,20.1-22.8c5.5-0.7,10.6,1,14,4.8c3.2,3.5,4.8,8.6,4.5,14.4
		c-0.2,2.9-0.7,5.3-1.3,7.4l-21.7,3.3l6.5,6.2l3.9,3.9L115.3,732.1z M151.1,737.6l0.7-1.1c6.2-9.2,9.5-19.2,10.1-30.6
		c0.7-13.5-2.6-24.6-9.6-32.3c-7.2-7.9-18-12-31.2-11.8c-2.3,0-4.8,0.2-7.2,0.5C84,666,61.3,690,59.7,719.3
		c-0.7,13,2.7,24.1,9.9,31.9c7.1,7.8,17.8,12,30.1,11.8c2,0,4.1-0.1,6.2-0.4c9.7-1.2,18.4-3.9,25.7-8.1l1-0.6l8.3,8.3
		c0,0,3.2,4,6.9,5.6c2.4,1,5.4,1.2,6.9,1.1c1.1,0,1.8-0.1,1.8-0.1l21.1-3L151.1,737.6z"/>
	<path style="fill-rule:evenodd;clip-rule:evenodd;fill:#FEFEFE;" d="M244.9,415.5c-51.4,0-87.1-57.9-87.1-119.9
		c0-62.1,35.7-120,87.1-120c51.4,0,87.1,57.9,87.1,120C332,357.7,296.3,415.5,244.9,415.5L244.9,415.5z M453.2,477.2
		c-51.8,36.7-110.3,23.6-146.7,9.2c78.2-26.4,131.2-101.9,131.2-190.8c0-111-84.4-200.9-192.8-200.9c-108.4,0-192.8,90-192.8,200.9
		c0,70.6,32.1,132.8,86,168.6c-34.3,8.8-61,24.6-77.5,39.9l23.5,39.4c14.1-7.4,58.2-25.1,110.1-6.6c57.5,20.5,84.9,40.6,138.6,43.9
		c92.8,5.5,121.1-66.9,126.9-99.1L453.2,477.2z"/>
	<path style="fill-rule:evenodd;clip-rule:evenodd;fill:#FEFEFE;" d="M320.8,700.6c-0.1,2.5,0.2,4.6,0.9,6.4c0.4,1,1,2,1.7,2.7
		c2.8,3,7,3.6,10,3.6c0.8,0,1.7-0.1,2.6-0.2c4-0.5,8.3-2,11.6-4.8l-2.2,21.5c0,0,0,0-0.1,0c-5,2.7-10.8,4.4-17.4,5.2
		c-1.5,0.2-3,0.3-4.4,0.3c-8.8,0.1-16.4-2.9-21.5-8.5c-5.1-5.6-7.5-13.5-7-22.8c0.4-7.8,2.9-15,7-21.1c6.9-10.5,18.3-17.9,31.7-19.6
		c1.8-0.2,3.5-0.3,5.2-0.4c4.2-0.1,8,0.5,11.5,1.6l-1.1,20.6c-2.2-1.5-5.1-2.3-8.4-2.2c-0.8,0-1.6,0.1-2.5,0.2
		c-2.2,0.3-4.2,0.8-6,1.6C325.7,687.7,321.2,693.5,320.8,700.6"/>
	<path style="fill-rule:evenodd;clip-rule:evenodd;fill:#FEFEFE;" d="M449.3,569.5c1.3,0,2-0.6,2-1.6c0-1-0.8-1.6-2-1.6h-2.4v3.2
		H449.3z M444.1,565.3c0-0.8,0.6-1.5,1.4-1.5h4c2.7,0,4.6,1.3,4.6,3.8c0,1.7-0.9,2.9-2.3,3.5l1.7,2.1c0.3,0.3,0.4,0.6,0.4,1
		c0,0.8-0.6,1.3-1.4,1.3c-0.5,0-0.8-0.3-1.1-0.6l-2.7-3.3h-1.8v2.5c0,0.8-0.6,1.4-1.4,1.4s-1.4-0.6-1.4-1.4V565.3z M458.4,569.9
		L458.4,569.9c0-5.5-4.2-9.9-9.7-9.9c-5.5,0-9.7,4.5-9.7,9.9v0.1c0,5.4,4.2,9.9,9.7,9.9C454.2,579.8,458.4,575.3,458.4,569.9
		L458.4,569.9z M437.6,569.9L437.6,569.9c0-6.1,4.9-11.2,11-11.2c6.2,0,11,5,11,11.1v0.1c0,6.1-4.9,11.1-11,11.1
		C442.4,581,437.6,576,437.6,569.9L437.6,569.9z"/>
</g>
</svg>
